<svg width="32" height="32" viewBox="0 0 32 32" xmlns="http://www.w3.org/2000/svg">
    <g fill="none" fill-rule="evenodd">
        <path d="M0 0h32v32H0z"/>
        <path d="m30.865.006-.136.025-1.702.425a6.512 6.512 0 0 0-4.88 5.443l-.033.294-.065.676H2.397a2.388 2.388 0 0 0-2.38 2.666l.03.183.65 3.245c.109.547.646.903 1.2.795.507-.1.851-.554.82-1.05L2.7 12.57l-.65-3.245a.363.363 0 0 1 .266-.427l.08-.01h21.455l-1.015 10.384H7.98c-2.047 0-2.825-.388-3.335-2.354l-.057-.249a1.02 1.02 0 0 0-1.2-.794 1.01 1.01 0 0 0-.804 1.187c.59 2.941 2.115 4.088 5.097 4.224l.3.006h15.433c.952 0 1.73.777 1.73 1.738 0 .9-.684 1.64-1.554 1.728l-.176.01H6.909c-.14 0-.274.027-.396.078a3.58 3.58 0 0 0-3.473 3.576A3.58 3.58 0 0 0 6.62 32a3.58 3.58 0 0 0 3.187-5.212h6.572a3.4 3.4 0 0 0 2.956 5.08 3.399 3.399 0 0 0 2.955-5.08h1.123a3.766 3.766 0 0 0 3.772-3.757c0-1.56-.957-2.901-2.319-3.468L26.15 6.369a4.484 4.484 0 0 1 3.129-3.885l.249-.07 1.701-.424a1.01 1.01 0 0 0 .74-1.227 1.02 1.02 0 0 0-1.103-.757zM19.336 27.097a1.375 1.375 0 1 1-1.375 1.374c0-.758.614-1.374 1.375-1.374zm-12.667 0a1.375 1.375 0 1 1-1.375 1.374c0-.758.616-1.374 1.375-1.374z" fill="#002863" fill-rule="nonzero"/>
    </g>
</svg>
